<svg xmlns="http://www.w3.org/2000/svg" width="44" height="44" fill="none"><path fill="#E5E5E5" d="M44 22a21.931 21.931 0 0 1-6.444 15.556A21.931 21.931 0 0 1 22 44a21.931 21.931 0 0 1-15.556-6.444A21.931 21.931 0 0 1 0 22 21.931 21.931 0 0 1 6.444 6.444 21.931 21.931 0 0 1 22 0a21.931 21.931 0 0 1 15.556 6.444A21.931 21.931 0 0 1 44 22Z"/><path stroke="#000" stroke-opacity=".3" d="M43.5 22a21.431 21.431 0 0 1-6.297 15.203A21.431 21.431 0 0 1 22 43.5a21.431 21.431 0 0 1-15.203-6.297A21.431 21.431 0 0 1 .5 22 21.431 21.431 0 0 1 6.797 6.797 21.431 21.431 0 0 1 22 .5a21.431 21.431 0 0 1 15.203 6.297A21.431 21.431 0 0 1 43.5 22Z"/></svg>